<svg height="512pt" viewBox="-8 0 512 512.00063" width="512pt" xmlns="http://www.w3.org/2000/svg" xmlns:xlink="http://www.w3.org/1999/xlink"><radialGradient id="a" cx="183.9355263922" cy="204.800088" gradientUnits="userSpaceOnUse" r="321.858397122"><stop offset="0" stop-color="#f2f2f2"/><stop offset=".471" stop-color="#f0f0f0"/><stop offset=".6773" stop-color="#e9e9e9"/><stop offset=".8318" stop-color="#dcdcdc"/><stop offset=".9598" stop-color="#cacaca"/><stop offset="1" stop-color="#c3c3c3"/></radialGradient><linearGradient id="b"><stop offset="0" stop-color="#c3c3c3" stop-opacity="0"/><stop offset=".2048" stop-color="#bbbab9" stop-opacity=".203922"/><stop offset=".5477" stop-color="#a6a2a0" stop-opacity=".54902"/><stop offset=".9843" stop-color="#837c76" stop-opacity=".984314"/><stop offset="1" stop-color="#827a74"/></linearGradient><linearGradient id="c" gradientUnits="userSpaceOnUse" x1="339.9717095174" x2="306.8422835174" xlink:href="#b" y1="438.7867987372" y2="564.2770487372"/><linearGradient id="d" gradientUnits="userSpaceOnUse" x1="81.3768627162" x2="104.8016759188" xlink:href="#b" y1="349.0996198076" y2="422.0512182128"/><linearGradient id="e" gradientUnits="userSpaceOnUse" x1="372.7996577408" x2="372.7996577408" xlink:href="#b" y1="240.9927811986" y2="-260.5339221442"/><linearGradient id="f"><stop offset="0" stop-color="#7f7979"/><stop offset=".2304" stop-color="#767071"/><stop offset=".6083" stop-color="#5d595a"/><stop offset="1" stop-color="#3d3b3c"/></linearGradient><linearGradient id="g" gradientUnits="userSpaceOnUse" x1="209.8877132298" x2="209.8877132298" xlink:href="#f" y1="85.1780632666" y2="167.7675136562"/><linearGradient id="h" gradientTransform="matrix(-1.003922 0 0 1.003922 -1776.607929 0)" gradientUnits="userSpaceOnUse" x1="-2055.0342" x2="-2055.0342" xlink:href="#f" y1="84.8453" y2="167.1121"/><linearGradient id="i" gradientUnits="userSpaceOnUse" x1="248.1865343922" x2="248.1865343922" xlink:href="#f" y1="183.369867027" y2="219.8593195688"/><linearGradient id="j" gradientUnits="userSpaceOnUse" x1="106.376929929" x2="40.118077929" xlink:href="#b" y1="293.5413716212" y2="82.7177516212"/><linearGradient id="k" gradientUnits="userSpaceOnUse" x1="376.0833862106" x2="412.2245782106" xlink:href="#b" y1="312.3066816452" y2="42.2516636452"/><path d="m493.074219 221.453125c-17.574219-10.375-48.039063-26.714844-87.386719-41.328125-25.09375-9.324219-41.746094-33.269531-41.746094-60.039062v-5.464844c0-63.304688-51.320312-114.621094-114.621094-114.621094-63.304687 0-114.621093 51.316406-114.621093 114.621094v.675781c0 26.449219-16.316407 50.019531-40.917969 59.730469-30.292969 11.957031-60.8125 28.453125-91.007812 50.539062-4.777344 3.492188-3.078126 11.046875 2.757812 12.035156 22.058594 3.734376 56.996094 17.707032 48.40625 69.230469-12.34375 74.0625 5.292969 109.328125 31.742188 116.382813 0 0-7.054688 49.375 42.320312 63.480468 49.375 14.109376 51.140625-29.976562 86.40625-15.871093 35.269531 14.109375 42.324219 26.453125 77.589844 24.6875 0 0 19.398437 26.453125 63.480468 12.347656 44.085938-14.109375 49.375-61.71875 29.980469-93.460937 0 0 26.449219-8.816407 21.160157-42.320313-4.925782-31.199219 3.289062-124.171875 84.167968-138.25 6.152344-1.070313 7.667969-9.199219 2.289063-12.375zm0 0" fill="url(#a)"/><path d="m355.480469 507.859375c41.542969-13.296875 48.625-56.335937 33.074219-87.820313-1.042969-1.839843-2.078126-3.71875-3.097657-5.640624-17.667969-33.351563-87.410156-35.585938-103.472656 10.59375-16.0625 46.179687 10.011719 70.519531 10.011719 70.519531l3.933594 4.101562c7.660156 6.8125 26.785156 18.730469 59.550781 8.246094zm0 0" fill="url(#c)"/><path d="m85.679688 423.214844s-2.472657-46.410156 36.347656-64.480469c0-18.851563-15.28125-34.132813-34.132813-34.132813h-36.417969c-6.847656 61.976563 9.96875 92.148438 34.203126 98.613282zm0 0" fill="url(#d)"/><path d="m493.074219 221.453125c-17.574219-10.375-48.039063-26.714844-87.386719-41.328125-25.09375-9.324219-41.746094-33.269531-41.746094-60.039062v-5.464844c0-63.304688-51.320312-114.621094-114.621094-114.621094-.03125 0-.0625 0-.09375 0v487.296875c12.027344 5.738281 22.9375 9.207031 42.773438 8.214844 0 0 19.394531 26.453125 63.480469 12.347656 44.085937-14.109375 49.375-61.71875 29.976562-93.460937 0 0 26.453125-8.816407 21.164063-42.320313-4.925782-31.199219 3.289062-124.171875 84.167968-138.25 6.148438-1.070313 7.664063-9.199219 2.285157-12.375zm0 0" fill="url(#e)"/><path d="m233.476562 130.003906c-11.085937 11.085938-30.632812 9.511719-43.660156-3.519531-13.027344-13.027344-14.601562-32.574219-3.515625-43.65625 11.082031-11.085937 30.628907-9.511719 43.65625 3.515625 13.027344 13.03125 14.601563 32.574219 3.519531 43.660156zm0 0" fill="url(#g)"/><path d="m262.898438 130.003906c11.082031 11.085938 30.628906 9.511719 43.65625-3.519531 13.027343-13.023437 14.605468-32.574219 3.519531-43.65625-11.085938-11.085937-30.628907-9.511719-43.660157 3.515625-13.027343 13.027344-14.601562 32.574219-3.515624 43.660156zm0 0" fill="url(#h)"/><path d="m258.171875 192.753906c0-7.558594-4.46875-13.683594-9.984375-13.683594s-9.988281 6.125-9.988281 13.683594c0 7.554688 4.472656 13.683594 9.988281 13.683594s9.984375-6.128906 9.984375-13.683594zm0 0" fill="url(#i)"/><path d="m.859375 234.316406c.902344 1.636719 2.5 2.917969 4.671875 3.285156 22.058594 3.734376 56.996094 17.707032 48.410156 69.230469-12.34375 74.0625 5.289063 109.328125 31.738282 116.382813 0 0-7.050782 49.375 42.324218 63.480468 44.277344 12.652344 50.269532-21.492187 76.472656-18.496093 7.488282-37.933594 14.421876-107.046875-12.511718-177.0625-35.597656-92.554688-162.707032-64.40625-191.105469-56.820313zm0 0" fill="url(#j)"/><path d="m490.785156 233.828125c2.972656-.519531 4.847656-2.679687 5.402344-5.136719-33.003906-8.261718-98.863281-15.226562-168.691406 31.324219-78.839844 52.558594-89.449219 179.023437-45.871094 235.585937 3.1875.117188 6.609375.101563 10.371094-.089843 0 0 19.398437 26.453125 63.484375 12.347656 44.085937-14.109375 49.375-61.71875 29.976562-93.460937 0 0 26.453125-8.816407 21.160157-42.320313-4.925782-31.199219 3.292968-124.171875 84.167968-138.25zm0 0" fill="url(#k)"/></svg>