<?xml version="1.0"?>
<svg xmlns="http://www.w3.org/2000/svg" height="512px" viewBox="0 -67 341.62 341" width="512px"><g><g fill="#f8ec7d"><path d="m331.621094 208.128906h-321.621094c-5.523438 0-10-4.476562-10-10 0-5.523437 4.476562-10 10-10h321.621094c5.523437 0 10 4.476563 10 10 0 5.523438-4.476563 10-10 10zm0 0" data-original="#000000" class="active-path" data-old_color="#979292" fill="#999494"/><path d="m331.621094 114.21875h-321.621094c-5.523438 0-10-4.476562-10-10s4.476562-10 10-10h321.621094c5.523437 0 10 4.476562 10 10s-4.476563 10-10 10zm0 0" data-original="#000000" class="active-path" data-old_color="#979292" fill="#999494"/><path d="m331.621094 20.308594h-321.621094c-5.523438 0-10-4.476563-10-10 0-5.519532 4.476562-10 10-10h321.621094c5.523437 0 10 4.480468 10 10 0 5.523437-4.476563 10-10 10zm0 0" data-original="#000000" class="active-path" data-old_color="#979292" fill="#999494"/></g></g> </svg>
