<?xml version="1.0" encoding="iso-8859-1"?>
<!-- Generator: Adobe Illustrator 19.0.0, SVG Export Plug-In . SVG Version: 6.00 Build 0)  -->
<svg version="1.1" id="Capa_1" xmlns="http://www.w3.org/2000/svg" xmlns:xlink="http://www.w3.org/1999/xlink" x="0px" y="0px"
	 viewBox="0 0 512 512" style="enable-background:new 0 0 512 512;" xml:space="preserve">
<path style="fill:#F7D291;" d="M417.485,440.804l-102.453-48.213c-5.789-2.724-9.484-8.546-9.484-14.944v-55.583h-99.097v55.583
	c0,6.398-3.695,12.22-9.484,14.944L94.515,440.804c-17.366,8.172-28.451,25.639-28.451,44.832v1.589
	c0,13.682,11.092,24.774,24.774,24.774h330.323c13.682,0,24.774-11.092,24.774-24.774v-1.589
	C445.935,466.443,434.852,448.976,417.485,440.804z"/>
<path style="fill:#A5CDFF;" d="M417.485,440.804l-60.982-28.698c-19.882,34.969-57.402,58.603-100.503,58.603
	s-80.621-23.634-100.503-58.602l-60.982,28.698c-17.366,8.172-28.451,25.639-28.451,44.832v1.589
	c0,13.682,11.092,24.774,24.774,24.774h330.323c13.682,0,24.774-11.092,24.774-24.774v-1.589
	C445.935,466.443,434.852,448.976,417.485,440.804z"/>
<path style="fill:#F0C382;" d="M206.452,352.04c15.042,7.176,31.801,11.314,49.548,11.314s34.506-4.138,49.548-11.314v-29.976
	h-99.097L206.452,352.04L206.452,352.04z"/>
<g>
	<circle style="fill:#E3AA75;" cx="256" cy="57.806" r="57.806"/>
	<ellipse style="fill:#E3AA75;" cx="256" cy="185.809" rx="132.13" ry="136.26"/>
</g>
<path style="fill:#FFE1A0;" d="M246.164,123.87c-28.271,29.237-89.261,50.59-89.261,90.839v33.032
	c0,54.729,44.367,99.097,99.097,99.097s99.097-44.367,99.097-99.097V123.87H246.164z"/>
<g>
	<path style="fill:#F7D291;" d="M232.6,135.739c19.816,21.182,43.424,36.367,63.223,49.027c2.902,1.855,5.755,3.68,8.539,5.485
		c25.868,16.77,44.622,33.719,50.686,58.447c0.003-0.322,0.048-0.634,0.048-0.957V123.87H246.164
		C242.21,127.959,237.578,131.885,232.6,135.739z"/>
	<path style="fill:#F7D291;" d="M181.677,247.741v-75.18c-14.27,12.081-24.774,25.487-24.774,42.148v33.032
		c0,54.729,44.367,99.097,99.097,99.097c4.205,0,8.32-0.348,12.387-0.856C219.518,339.873,181.677,298.266,181.677,247.741z"/>
</g>
<path style="fill:#E3AA75;" d="M256,295.398c-12.887,0-24.774-3.919-31.79-10.484c-3.331-3.113-3.508-8.339-0.395-11.673
	c3.129-3.339,8.347-3.504,11.669-0.391c2.976,2.782,10.137,6.032,20.516,6.032c10.379,0,17.54-3.25,20.516-6.032
	c3.323-3.105,8.54-2.94,11.669,0.391c3.113,3.335,2.935,8.56-0.395,11.673C280.774,291.479,268.887,295.398,256,295.398z"/>
<g>
	<path style="fill:#6E5A64;" d="M210.927,235.354c-4.565,0-8.258-3.698-8.258-8.258v-8.258c0-4.56,3.694-8.258,8.258-8.258
		s8.258,3.698,8.258,8.258v8.258C219.185,231.656,215.492,235.354,210.927,235.354z"/>
	<path style="fill:#6E5A64;" d="M301.073,235.354c-4.565,0-8.258-3.698-8.258-8.258v-8.258c0-4.56,3.694-8.258,8.258-8.258
		s8.258,3.698,8.258,8.258v8.258C309.331,231.656,305.637,235.354,301.073,235.354z"/>
</g>
<path style="fill:#F5B97D;" d="M385.46,234.887c-1.807-5.666-2.274-11.687-0.933-17.481c2.348-10.14,3.602-20.717,3.602-31.6
	c0-75.254-59.156-136.258-132.129-136.258c-16.133,0-31.52,3.13-45.812,8.587c12.264,64.187,64.289,93.06,103.159,118.258
	c32.678,21.185,59.376,45.872,60.331,88.054c0.105,4.496,3.782,8.069,8.258,8.069c0.056,0,0.121,0,0.185-0.004
	c4.565-0.101,8.177-3.883,8.073-8.444C389.949,253.347,388.268,243.693,385.46,234.887z"/>
<path style="fill:#8CB4EB;" d="M140.483,419.171c22.554,40.571,65.806,68.053,115.517,68.053s92.963-27.483,115.517-68.053
	l-15.014-7.065c-19.882,34.969-57.402,58.603-100.503,58.603s-80.621-23.634-100.503-58.602L140.483,419.171z"/>
<g>
</g>
<g>
</g>
<g>
</g>
<g>
</g>
<g>
</g>
<g>
</g>
<g>
</g>
<g>
</g>
<g>
</g>
<g>
</g>
<g>
</g>
<g>
</g>
<g>
</g>
<g>
</g>
<g>
</g>
</svg>
