<svg width="1382" height="487" viewBox="0 0 1382 487" fill="none" xmlns="http://www.w3.org/2000/svg">
<path fill-rule="evenodd" clip-rule="evenodd" d="M1099.84 110.813L1019.36 111.216C1012.85 111.248 1010 100.287 1015.32 95.3895C1015.4 95.3216 1015.48 95.2537 1015.55 95.1841C1023.12 88.3565 1033.09 88.9235 1033.09 88.9235C1033.09 88.9235 1034.41 52.1886 1061.21 52.0545C1074.47 51.9883 1085.27 81.4102 1085.27 81.4102C1085.27 81.4102 1103.3 81.3202 1106.34 99.8251C1107.26 105.432 1104.25 110.791 1099.84 110.813" fill="white"/>
<path fill-rule="evenodd" clip-rule="evenodd" d="M588.624 61.4702L664.428 61.0916C671.206 61.0594 674.094 49.6298 668.532 44.5932C668.454 44.5219 668.375 44.4523 668.296 44.381C660.379 37.3582 650.016 38.0525 650.016 38.0525C650.016 38.0525 648.424 -0.138819 620.54 0.000379588C595.331 0.125998 585.373 32.3624 581.8 50.1119C580.639 55.8785 584.041 61.4939 588.624 61.4702" fill="white"/>
<path d="M2 370.771H1376.89" stroke="#E4F3F9" stroke-width="4" stroke-linecap="round" stroke-linejoin="round"/>
<path fill-rule="evenodd" clip-rule="evenodd" d="M367.865 142.054C386.039 141.962 377.425 104.521 354.429 113.589C353 61.546 287.67 23.7892 260.911 94.1269C253.264 86.3165 236.186 101.224 240.015 114.16C231.55 115.141 224.889 116.45 219.711 118.164C207.753 122.119 210.183 142.665 222.519 142.459L367.865 142.054Z" fill="white"/>
<path fill-rule="evenodd" clip-rule="evenodd" d="M560.487 180.723L514.882 308.032H560.73L560.487 180.723Z" fill="white"/>
<path fill-rule="evenodd" clip-rule="evenodd" d="M560.487 180.723L514.882 308.032H560.73L560.487 180.723Z" stroke="#E1E4E5" stroke-width="4" stroke-linecap="round" stroke-linejoin="round"/>
<path fill-rule="evenodd" clip-rule="evenodd" d="M561.792 118.764L678.818 307.185L562.033 318.217L561.792 118.764Z" fill="white"/>
<path fill-rule="evenodd" clip-rule="evenodd" d="M561.792 118.764L678.818 307.185L562.033 318.217L561.792 118.764Z" stroke="#E1E4E5" stroke-width="4" stroke-linecap="round" stroke-linejoin="round"/>
<path d="M562.033 412.426V100.938" stroke="#E1E4E5" stroke-width="4" stroke-linecap="round" stroke-linejoin="round"/>
<path fill-rule="evenodd" clip-rule="evenodd" d="M505.272 412.426H673.599L702.308 343.679L487.003 357.261L505.272 412.426Z" fill="white"/>
<path fill-rule="evenodd" clip-rule="evenodd" d="M505.272 412.426H673.599L702.308 343.679L487.003 357.261L505.272 412.426Z" stroke="#E1E4E5" stroke-width="4" stroke-linecap="round" stroke-linejoin="round"/>
<path fill-rule="evenodd" clip-rule="evenodd" d="M561.792 100.091H535.693L542.218 107.908L535.041 115.547H561.792V100.091Z" fill="white"/>
<path fill-rule="evenodd" clip-rule="evenodd" d="M561.792 100.091H535.693L542.218 107.908L535.041 115.547H561.792V100.091Z" stroke="#E1E4E5" stroke-width="4" stroke-linecap="round" stroke-linejoin="round"/>
<path fill-rule="evenodd" clip-rule="evenodd" d="M37.7397 370.615L417.113 370.772C417.113 370.772 159.495 302.889 2 294.031" fill="white"/>
<path d="M2 370.772H417.113C417.113 370.772 159.495 302.889 2 294.031" stroke="#E1E4E5" stroke-width="4" stroke-linecap="round" stroke-linejoin="round"/>
<path fill-rule="evenodd" clip-rule="evenodd" d="M1375.14 484.005L689.257 484.286C689.257 484.286 1095.26 361.557 1380 345.544" fill="white"/>
<path d="M1375.14 484.005L689.257 484.286C689.257 484.286 1095.26 361.557 1380 345.544" stroke="#E1E4E5" stroke-width="4" stroke-linecap="round" stroke-linejoin="round"/>
</svg>
